<svg width="92" height="34" viewBox="0 0 92 34" fill="none" xmlns="http://www.w3.org/2000/svg">
<path d="M1.24199 27.0645V7.79481H6.4734V22.8492H14.2641V27.0645H1.24199ZM14.8738 12.01V7.79481H31.6218V12.01H25.8258V27.0645H20.6697V12.01H14.8738ZM51.9998 15.0209H46.6931C46.6555 14.5818 46.5551 14.1835 46.392 13.826C46.2352 13.4684 46.0157 13.1611 45.7334 12.9039C45.4574 12.6404 45.1218 12.4397 44.7266 12.3017C44.3315 12.1575 43.883 12.0853 43.3812 12.0853C42.503 12.0853 41.7597 12.2986 41.1512 12.7251C40.5491 13.1517 40.0911 13.7633 39.7775 14.5599C39.4702 15.3565 39.3165 16.3131 39.3165 17.4296C39.3165 18.6089 39.4733 19.5968 39.7869 20.3935C40.1068 21.1838 40.5679 21.7797 41.17 22.1812C41.7722 22.5764 42.4967 22.7739 43.3435 22.7739C43.8265 22.7739 44.2593 22.7144 44.642 22.5952C45.0246 22.4697 45.3571 22.291 45.6393 22.0589C45.9216 21.8268 46.1505 21.5476 46.3262 21.2215C46.5081 20.889 46.6304 20.5158 46.6931 20.1018L51.9998 20.1394C51.9371 20.9549 51.7081 21.786 51.313 22.6328C50.9178 23.4733 50.3564 24.2512 49.6287 24.9662C48.9074 25.6751 48.0135 26.2459 46.9472 26.6787C45.8808 27.1115 44.642 27.3279 43.2306 27.3279C41.4617 27.3279 39.8747 26.9484 38.4697 26.1894C37.0709 25.4304 35.9637 24.3139 35.1483 22.8398C34.3391 21.3657 33.9345 19.5623 33.9345 17.4296C33.9345 15.2844 34.3485 13.4778 35.1765 12.01C36.0045 10.536 37.121 9.42257 38.5261 8.66985C39.9312 7.91085 41.4994 7.53136 43.2306 7.53136C44.4475 7.53136 45.5672 7.69758 46.5896 8.03003C47.6121 8.36249 48.5091 8.84862 49.2806 9.48843C50.0521 10.122 50.6731 10.9029 51.1436 11.8313C51.614 12.7596 51.8994 13.8228 51.9998 15.0209Z" fill="white"/>
<rect x="58.9312" y="0.5" width="33.0688" height="33" rx="4" fill="url(#paint0_linear_207_1581)"/>
<path d="M66.8864 11.0844V23.1279H65.4985V11.0844H66.8864ZM72.0863 23.3396C71.5139 23.3396 70.9945 23.2318 70.528 23.0162C70.0614 22.7967 69.6909 22.4811 69.4165 22.0694C69.1421 21.6539 69.0049 21.152 69.0049 20.564C69.0049 20.0465 69.1068 19.627 69.3107 19.3055C69.5145 18.9801 69.787 18.7253 70.1281 18.541C70.4691 18.3568 70.8455 18.2196 71.2572 18.1294C71.6727 18.0353 72.0902 17.9608 72.5097 17.9059C73.0586 17.8354 73.5036 17.7824 73.8446 17.7472C74.1896 17.7079 74.4405 17.6433 74.5974 17.5531C74.7581 17.4629 74.8385 17.3061 74.8385 17.0826V17.0356C74.8385 16.4554 74.6797 16.0045 74.3621 15.6831C74.0485 15.3616 73.5722 15.2008 72.9331 15.2008C72.2706 15.2008 71.7511 15.3459 71.3748 15.636C70.9984 15.9261 70.7338 16.2358 70.5809 16.5651L69.2636 16.0947C69.4988 15.5458 69.8125 15.1185 70.2045 14.8127C70.6005 14.503 71.0317 14.2874 71.4983 14.1659C71.9687 14.0404 72.4313 13.9777 72.8861 13.9777C73.1762 13.9777 73.5094 14.013 73.8858 14.0835C74.2661 14.1502 74.6326 14.2893 74.9855 14.501C75.3422 14.7127 75.6382 15.0323 75.8734 15.4596C76.1087 15.8869 76.2263 16.4593 76.2263 17.1767V23.1279H74.8385V21.9048H74.7679C74.6738 22.1008 74.517 22.3105 74.2974 22.534C74.0779 22.7575 73.7858 22.9476 73.4212 23.1044C73.0566 23.2612 72.6117 23.3396 72.0863 23.3396ZM72.298 22.0929C72.8469 22.0929 73.3095 21.9851 73.6859 21.7695C74.0661 21.5539 74.3523 21.2755 74.5444 20.9345C74.7404 20.5934 74.8385 20.2347 74.8385 19.8583V18.5881C74.7797 18.6587 74.6503 18.7233 74.4503 18.7821C74.2543 18.837 74.0269 18.886 73.7682 18.9292C73.5134 18.9684 73.2644 19.0036 73.0213 19.035C72.7822 19.0625 72.5881 19.086 72.4392 19.1056C72.0785 19.1526 71.7413 19.2291 71.4277 19.3349C71.118 19.4369 70.8671 19.5917 70.675 19.7995C70.4868 20.0034 70.3927 20.2817 70.3927 20.6345C70.3927 21.1168 70.5711 21.4814 70.9278 21.7283C71.2885 21.9714 71.7452 22.0929 72.298 22.0929ZM78.9475 23.1279V11.0844H80.3354V15.5302H80.453C80.5549 15.3733 80.6961 15.1734 80.8764 14.9303C81.0607 14.6833 81.3233 14.4638 81.6644 14.2717C82.0094 14.0757 82.4759 13.9777 83.064 13.9777C83.8245 13.9777 84.4949 14.1678 85.0752 14.5481C85.6554 14.9284 86.1082 15.4674 86.4336 16.1653C86.759 16.8631 86.9217 17.6864 86.9217 18.6351C86.9217 19.5917 86.759 20.4209 86.4336 21.1226C86.1082 21.8205 85.6573 22.3615 85.081 22.7457C84.5047 23.126 83.8402 23.3161 83.0875 23.3161C82.5073 23.3161 82.0427 23.2201 81.6938 23.028C81.3449 22.8319 81.0763 22.6104 80.8882 22.3634C80.7 22.1125 80.5549 21.9048 80.453 21.7401H80.2883V23.1279H78.9475ZM80.3119 18.6116C80.3119 19.2938 80.4118 19.8955 80.6118 20.417C80.8117 20.9345 81.1038 21.3402 81.488 21.6342C81.8722 21.9244 82.3426 22.0694 82.8993 22.0694C83.4796 22.0694 83.9637 21.9165 84.3518 21.6107C84.7439 21.301 85.0379 20.8854 85.2339 20.364C85.4339 19.8387 85.5339 19.2546 85.5339 18.6116C85.5339 17.9765 85.4358 17.4041 85.2398 16.8945C85.0477 16.3809 84.7556 15.9751 84.3636 15.6772C83.9755 15.3753 83.4874 15.2244 82.8993 15.2244C82.3348 15.2244 81.8604 15.3675 81.4762 15.6537C81.092 15.9359 80.8019 16.3319 80.6059 16.8415C80.4099 17.3473 80.3119 17.9373 80.3119 18.6116Z" fill="white"/>
<defs>
<linearGradient id="paint0_linear_207_1581" x1="94.7557" y1="0.499998" x2="60.4095" y2="34.9729" gradientUnits="userSpaceOnUse">
<stop stop-color="#C32360"/>
<stop offset="1" stop-color="#1BACEE"/>
</linearGradient>
</defs>
</svg>
